<mxfile host="app.diagrams.net" agent="Mozilla/5.0 (Windows NT 10.0; Win64; x64) AppleWebKit/537.36 (KHTML, like Gecko) Chrome/134.0.0.0 Safari/537.36" version="26.1.1">
  <diagram name="페이지-1" id="F8TrWkAPBSd7Ji6Z7WQF">
    <mxGraphModel dx="1185" dy="647" grid="1" gridSize="10" guides="1" tooltips="1" connect="1" arrows="1" fold="1" page="1" pageScale="1" pageWidth="827" pageHeight="1169" math="0" shadow="0">
      <root>
        <mxCell id="0" />
        <mxCell id="1" parent="0" />
        <mxCell id="KRUYLewd8vy1uW4XwzaI-7" style="edgeStyle=orthogonalEdgeStyle;rounded=0;orthogonalLoop=1;jettySize=auto;html=1;entryX=0.5;entryY=0;entryDx=0;entryDy=0;" parent="1" source="KRUYLewd8vy1uW4XwzaI-1" target="KRUYLewd8vy1uW4XwzaI-2" edge="1">
          <mxGeometry relative="1" as="geometry" />
        </mxCell>
        <mxCell id="KRUYLewd8vy1uW4XwzaI-1" value="IDLE" style="ellipse;whiteSpace=wrap;html=1;aspect=fixed;" parent="1" vertex="1">
          <mxGeometry x="200" y="110" width="80" height="80" as="geometry" />
        </mxCell>
        <mxCell id="KRUYLewd8vy1uW4XwzaI-8" style="edgeStyle=orthogonalEdgeStyle;rounded=0;orthogonalLoop=1;jettySize=auto;html=1;exitX=1;exitY=0.5;exitDx=0;exitDy=0;entryX=0;entryY=0.5;entryDx=0;entryDy=0;" parent="1" source="KRUYLewd8vy1uW4XwzaI-2" target="KRUYLewd8vy1uW4XwzaI-3" edge="1">
          <mxGeometry relative="1" as="geometry" />
        </mxCell>
        <mxCell id="KRUYLewd8vy1uW4XwzaI-2" value="START" style="ellipse;whiteSpace=wrap;html=1;aspect=fixed;" parent="1" vertex="1">
          <mxGeometry x="200" y="320" width="80" height="80" as="geometry" />
        </mxCell>
        <mxCell id="KRUYLewd8vy1uW4XwzaI-9" style="edgeStyle=orthogonalEdgeStyle;rounded=0;orthogonalLoop=1;jettySize=auto;html=1;exitX=0.5;exitY=0;exitDx=0;exitDy=0;entryX=0.5;entryY=1;entryDx=0;entryDy=0;" parent="1" source="KRUYLewd8vy1uW4XwzaI-3" target="KRUYLewd8vy1uW4XwzaI-4" edge="1">
          <mxGeometry relative="1" as="geometry" />
        </mxCell>
        <mxCell id="KRUYLewd8vy1uW4XwzaI-13" style="edgeStyle=orthogonalEdgeStyle;rounded=0;orthogonalLoop=1;jettySize=auto;html=1;exitX=1;exitY=0;exitDx=0;exitDy=0;entryX=0.5;entryY=1;entryDx=0;entryDy=0;" parent="1" source="KRUYLewd8vy1uW4XwzaI-3" target="KRUYLewd8vy1uW4XwzaI-3" edge="1">
          <mxGeometry relative="1" as="geometry">
            <mxPoint x="630" y="410" as="targetPoint" />
            <Array as="points">
              <mxPoint x="588" y="320" />
              <mxPoint x="650" y="320" />
              <mxPoint x="650" y="420" />
              <mxPoint x="560" y="420" />
            </Array>
          </mxGeometry>
        </mxCell>
        <mxCell id="KRUYLewd8vy1uW4XwzaI-3" value="DATA" style="ellipse;whiteSpace=wrap;html=1;aspect=fixed;" parent="1" vertex="1">
          <mxGeometry x="520" y="320" width="80" height="80" as="geometry" />
        </mxCell>
        <mxCell id="KRUYLewd8vy1uW4XwzaI-10" style="edgeStyle=orthogonalEdgeStyle;rounded=0;orthogonalLoop=1;jettySize=auto;html=1;exitX=0;exitY=0.5;exitDx=0;exitDy=0;entryX=1;entryY=0.5;entryDx=0;entryDy=0;" parent="1" source="KRUYLewd8vy1uW4XwzaI-4" target="KRUYLewd8vy1uW4XwzaI-1" edge="1">
          <mxGeometry relative="1" as="geometry" />
        </mxCell>
        <mxCell id="KRUYLewd8vy1uW4XwzaI-4" value="STOP" style="ellipse;whiteSpace=wrap;html=1;aspect=fixed;" parent="1" vertex="1">
          <mxGeometry x="520" y="110" width="80" height="80" as="geometry" />
        </mxCell>
        <mxCell id="KRUYLewd8vy1uW4XwzaI-11" value="rx == 0" style="text;html=1;align=center;verticalAlign=middle;whiteSpace=wrap;rounded=0;" parent="1" vertex="1">
          <mxGeometry x="160" y="230" width="100" height="30" as="geometry" />
        </mxCell>
        <mxCell id="KRUYLewd8vy1uW4XwzaI-14" value="tick_count == 7" style="text;html=1;align=center;verticalAlign=middle;whiteSpace=wrap;rounded=0;" parent="1" vertex="1">
          <mxGeometry x="350" y="360" width="110" height="30" as="geometry" />
        </mxCell>
        <mxCell id="KRUYLewd8vy1uW4XwzaI-17" value="bit_count &amp;lt; 7" style="text;html=1;align=center;verticalAlign=middle;whiteSpace=wrap;rounded=0;" parent="1" vertex="1">
          <mxGeometry x="650" y="350" width="80" height="30" as="geometry" />
        </mxCell>
        <mxCell id="KRUYLewd8vy1uW4XwzaI-18" value="bit_count == 7" style="text;html=1;align=center;verticalAlign=middle;whiteSpace=wrap;rounded=0;" parent="1" vertex="1">
          <mxGeometry x="560" y="240" width="80" height="30" as="geometry" />
        </mxCell>
        <mxCell id="KRUYLewd8vy1uW4XwzaI-19" value="tick_count == 23" style="text;html=1;align=center;verticalAlign=middle;whiteSpace=wrap;rounded=0;" parent="1" vertex="1">
          <mxGeometry x="350" y="120" width="110" height="30" as="geometry" />
        </mxCell>
      </root>
    </mxGraphModel>
  </diagram>
</mxfile>
